<svg width="16" height="16" viewBox="0 0 16 16" fill="none" xmlns="http://www.w3.org/2000/svg">
<g clip-path="url(#clip0)">
<rect width="16" height="16" rx="2" fill="black"/>
<path d="M0.74707 6.19971H2.65137V3.79736H4.09424V6.19971H6.65771V7.64258H4.09424V12.5571H6.65771V14H4.09424C3.89893 14 3.71338 13.9634 3.5376 13.8901C3.36182 13.812 3.20801 13.7095 3.07617 13.5825C2.94434 13.4507 2.83936 13.2969 2.76123 13.1211C2.68799 12.9453 2.65137 12.7573 2.65137 12.5571V7.64258H0.74707V6.19971Z" fill="white"/>
<path d="M12.0942 4.63965V6.19971H14.6577V7.64258H12.0942V14H10.6514V7.64258H8.74707V6.19971H10.6514V4.63965C10.6514 4.43945 10.688 4.25391 10.7612 4.08301C10.8394 3.90723 10.9443 3.75342 11.0762 3.62158C11.208 3.48975 11.3618 3.38721 11.5376 3.31396C11.7134 3.23584 11.8989 3.19678 12.0942 3.19678H14.6577V4.63965H12.0942Z" fill="white"/>
</g>
<defs>
<clipPath id="clip0">
<rect width="16" height="16" rx="2" fill="white"/>
</clipPath>
</defs>
</svg>
