<?xml version="1.0" standalone="no"?>
<!DOCTYPE svg PUBLIC "-//W3C//DTD SVG 20010904//EN"
 "http://www.w3.org/TR/2001/REC-SVG-20010904/DTD/svg10.dtd">
<svg version="1.0" xmlns="http://www.w3.org/2000/svg"
 width="840.000000pt" height="664.000000pt" viewBox="0 0 840.000000 664.000000"
 preserveAspectRatio="xMidYMid meet">

<g transform="translate(0.000000,664.000000) scale(0.100000,-0.100000)"
fill="#000000" stroke="none">
<path d="M3760 5784 c-273 -19 -465 -42 -630 -74 -58 -12 -125 -25 -150 -29
-25 -5 -72 -16 -105 -25 -33 -9 -78 -22 -100 -28 -22 -5 -49 -14 -60 -18 -11
-4 -45 -15 -75 -25 -30 -10 -68 -23 -85 -30 -16 -7 -66 -27 -110 -46 -44 -18
-84 -36 -90 -39 -5 -4 -35 -21 -65 -37 -98 -53 -129 -77 -149 -118 -23 -46
-53 -137 -70 -215 -7 -30 -17 -71 -21 -90 -19 -79 -36 -211 -60 -475 -19 -207
-11 -432 27 -750 29 -244 34 -271 103 -565 13 -57 65 -218 105 -325 142 -380
420 -792 782 -1162 195 -198 344 -325 614 -521 60 -43 278 -182 286 -182 3 0
17 -9 32 -20 16 -10 81 -47 146 -80 l118 -61 96 49 c53 27 120 63 149 81 29
17 55 31 58 31 13 0 368 242 454 310 470 367 862 824 1107 1290 166 317 293
776 333 1208 5 61 15 160 20 220 13 137 13 337 0 477 -24 264 -41 396 -60 475
-4 19 -14 60 -21 90 -43 192 -83 263 -177 311 -15 8 -47 25 -72 39 -39 22
-117 57 -235 105 -16 7 -55 20 -85 30 -30 10 -64 21 -75 25 -18 7 -135 38
-225 60 -127 30 -283 60 -370 70 -210 25 -276 31 -475 45 -261 18 -608 17
-865 -1z m478 -424 c14 -30 38 -73 52 -95 15 -22 29 -45 31 -52 2 -6 47 -56
99 -110 52 -54 128 -139 167 -188 40 -50 77 -94 81 -100 27 -33 112 -166 112
-175 0 -5 3 -10 8 -10 4 0 12 -10 18 -23 6 -12 39 -78 74 -147 66 -133 66
-133 100 -225 12 -33 25 -69 30 -80 21 -56 40 -122 40 -140 0 -12 5 -26 10
-31 6 -6 13 -24 15 -40 3 -16 12 -58 19 -94 32 -142 36 -196 36 -450 0 -145
-2 -261 -5 -259 -2 3 -5 62 -6 132 0 70 -5 130 -11 133 -5 4 -5 11 1 18 9 10
-5 12 -67 8 -42 -2 -85 -8 -94 -13 -9 -5 -46 -9 -82 -9 -35 0 -66 -4 -68 -10
-1 -5 -29 -11 -61 -12 -32 -1 -61 -6 -63 -10 -3 -4 -23 -8 -44 -8 -28 0 -38
-4 -34 -13 4 -10 -12 -12 -76 -9 -53 2 -80 0 -80 -7 0 -7 -24 -11 -62 -11 -85
0 -106 -7 -106 -33 1 -12 -2 -83 -5 -157 -3 -74 -9 -236 -12 -360 -3 -124 -10
-243 -16 -265 -11 -42 -7 -375 5 -435 25 -125 52 -195 94 -242 l25 -27 -29
-63 -29 -63 -1 -215 c-1 -215 -1 -215 -22 -213 -12 2 -37 9 -56 17 l-34 14 -5
134 c-7 162 -22 257 -55 338 -5 14 -43 53 -83 87 -134 111 -304 293 -382 408
-22 33 -43 62 -46 65 -3 3 -12 16 -20 30 -8 14 -35 59 -61 100 -25 41 -55 95
-67 120 -26 56 -63 139 -73 165 -40 102 -50 130 -50 146 0 11 -4 27 -9 37 -11
20 -39 140 -54 232 -24 141 -11 575 22 730 22 107 32 157 37 185 3 17 9 39 13
50 5 11 19 54 31 95 12 41 26 83 31 92 5 10 9 22 9 28 0 29 147 327 212 432
101 162 254 346 378 454 95 84 146 147 162 202 12 40 13 41 22 20 5 -13 21
-48 34 -78z m766 -1975 c11 -8 18 -16 15 -18 -2 -2 -35 0 -74 3 -38 4 -53 8
-33 8 20 1 40 7 43 12 9 14 27 12 49 -5z m86 11 c0 -9 -50 -12 -62 -5 -8 6 1
9 25 9 20 0 37 -2 37 -4z m-350 -26 c0 -5 14 -10 30 -10 17 0 30 5 30 10 0 6
11 10 25 10 14 0 25 -4 25 -10 0 -5 7 -10 15 -10 8 0 15 -4 15 -10 0 -17 -86
-16 -132 2 -27 10 -38 28 -18 28 6 0 10 -4 10 -10z m-100 -20 c0 -5 -4 -10
-10 -10 -5 0 -10 5 -10 10 0 6 5 10 10 10 6 0 10 -4 10 -10z m83 -4 c16 -13
15 -14 -10 -19 -38 -7 -57 1 -42 19 14 17 29 17 52 0z m-92 -16 c10 -6 19 -15
19 -20 0 -13 -117 -13 -125 0 -4 6 6 10 22 10 15 0 35 5 43 10 19 12 17 12 41
0z m-131 -25 c11 -13 3 -15 -66 -13 -44 0 -63 3 -44 5 19 3 39 9 45 14 14 14
51 11 65 -6z m440 5 c0 -5 -4 -10 -10 -10 -5 0 -10 5 -10 10 0 6 5 10 10 10 6
0 10 -4 10 -10z m-609 -20 c26 -14 24 -32 -3 -28 -13 2 -24 11 -26 21 -4 20 2
21 29 7z m689 -80 c0 -5 -4 -10 -10 -10 -5 0 -10 5 -10 10 0 6 5 10 10 10 6 0
10 -4 10 -10z m-700 -20 c0 -5 -4 -10 -10 -10 -5 0 -10 5 -10 10 0 6 5 10 10
10 6 0 10 -4 10 -10z m0 -60 c0 -5 -4 -10 -10 -10 -5 0 -10 5 -10 10 0 6 5 10
10 10 6 0 10 -4 10 -10z"/>
<path d="M4263 3710 c0 -25 2 -35 4 -22 2 12 2 32 0 45 -2 12 -4 2 -4 -23z"/>
<path d="M4973 3598 c7 -4 -11 -8 -40 -8 -28 0 -55 -4 -58 -10 -3 -5 -35 -10
-71 -10 -45 0 -64 -4 -64 -13 0 -9 -18 -12 -71 -9 -44 3 -75 0 -82 -7 -6 -6
-39 -11 -74 -11 -35 0 -63 -4 -63 -10 0 -5 -17 -9 -37 -8 -20 1 -39 -4 -41
-10 -2 -7 -24 -12 -52 -12 l-49 0 -4 48 c-2 31 -4 20 -5 -33 -1 -52 2 -85 10
-93 20 -20 29 -13 26 23 -2 35 11 61 19 38 5 -15 53 -18 53 -3 0 6 20 10 45
10 25 0 45 5 45 10 0 6 28 10 64 10 36 0 68 5 71 10 3 6 35 10 70 10 35 0 67
5 70 10 3 6 28 10 56 10 27 0 49 5 49 10 0 6 5 10 11 10 5 0 7 -4 4 -10 -3 -5
-2 -10 4 -10 5 0 13 5 16 10 3 6 26 10 50 10 24 0 47 5 50 10 3 6 38 10 76 10
52 0 70 3 66 13 -2 8 -28 12 -80 12 -42 0 -71 -3 -64 -7z"/>
</g>
</svg>
