<svg width="135" height="126" viewBox="0 0 135 126" fill="none" xmlns="http://www.w3.org/2000/svg">
<path d="M28.3042 74.48C33.6642 74.48 36.7042 71.88 36.7042 68.32C36.7042 60.52 25.2242 62.92 25.2242 60.08C25.2242 59 26.4242 58.2 28.2642 58.2C30.6242 58.2 32.8242 59.24 33.9842 60.44L36.0242 56.84C34.1042 55.32 31.5042 54.2 28.2642 54.2C23.1442 54.2 20.3442 57.04 20.3442 60.28C20.3442 67.88 31.7842 65.28 31.7842 68.44C31.7842 69.64 30.7442 70.48 28.5442 70.48C26.1442 70.48 23.3042 69.16 21.8642 67.8L19.6642 71.48C21.7042 73.36 24.9442 74.48 28.3042 74.48ZM50.2467 81.84C56.4067 81.84 60.5267 78.52 60.5267 72.72V54.68H55.4467V66.92C54.5667 68.04 53.0067 69.12 51.0467 69.12C48.8867 69.12 47.4867 68.24 47.4867 65.56V54.68H42.4067V67.56C42.4067 71.32 44.4067 73.64 48.6467 73.64C51.8067 73.64 54.1267 72.16 55.4467 70.72V72.72C55.4467 75.44 53.5267 77.68 50.2467 77.68C48.2067 77.68 45.8467 77 44.4467 75.32L42.1667 78.96C44.4067 80.92 47.0067 81.84 50.2467 81.84ZM85.7308 74V60.36C85.7308 56.6 83.6908 54.2 79.4108 54.2C76.2908 54.2 73.8908 55.72 72.6508 57.16V54.68H67.5708V74H72.6508V60.96C73.5308 59.84 75.0508 58.72 77.0508 58.72C79.2108 58.72 80.6108 59.64 80.6108 62.32V74H85.7308ZM101.735 74.48C105.695 74.48 108.095 72.72 109.375 70.96L106.055 67.84C105.135 69.16 103.735 69.96 101.975 69.96C98.8948 69.96 96.7348 67.68 96.7348 64.32C96.7348 60.96 98.8948 58.72 101.975 58.72C103.735 58.72 105.135 59.44 106.055 60.8L109.375 57.68C108.095 55.92 105.695 54.2 101.735 54.2C95.8148 54.2 91.4948 58.4 91.4948 64.32C91.4948 70.28 95.8148 74.48 101.735 74.48Z" fill="white"/>
<circle cx="63" cy="63" r="62" stroke="white" stroke-width="2"/>
<rect x="113" y="44" width="15" height="23" fill="#212121"/>
<path d="M124 59L114.474 69.5L133.526 69.5L124 59Z" fill="white"/>
</svg>
